PathFileType	4	(X/Y/Z)	Patient4_TMGait_0pt4_01_right_21.trc.trc
DataRate	CameraRate	NumFrames	NumMarkers	Units	OrigDataRate	OrigDataStartFrame	OrigNumFrames
79.096045197740	79.096045197740	4	33	mm	79.096045197740	18	       141
Frame#	Time	Sacral			L.Shoulder			Chest			R.Shoulder			Neck			R.ASIS			L.ASIS			R.Thigh.Superior			R.Thigh.Lateral			R.Thigh.Inferior			R.Patella			L.Thigh.Superior			L.Thigh.Lateral			L.Thigh.Inferior			L.Patella			L.Shank.Superior			L.Shank.Lateral			L.Shank.Inferior			R.Shank.Superior			R.Shank.Lateral			R.Shank.Inferior			R.Heel			R.Midfoot.Superior			R.Midfoot.Lateral			R.Toe			L.Heel			L.Midfoot.Lateral			L.Midfoot.Superior			L.Toe			L.Elbow			L.Wrist			R.Elbow			R.Wrist			
		X1	Y1	Z1	X2	Y2	Z2	X3	Y3	Z3	X4	Y4	Z4	X5	Y5	Z5	X6	Y6	Z6	X7	Y7	Z7	X8	Y8	Z8	X9	Y9	Z9	X10	Y10	Z10	X11	Y11	Z11	X12	Y12	Z12	X13	Y13	Z13	X14	Y14	Z14	X15	Y15	Z15	X16	Y16	Z16	X17	Y17	Z17	X18	Y18	Z18	X19	Y19	Z19	X20	Y20	Z20	X21	Y21	Z21	X22	Y22	Z22	X23	Y23	Z23	X24	Y24	Z24	X25	Y25	Z25	X26	Y26	Z26	X27	Y27	Z27	X28	Y28	Z28	X29	Y29	Z29	X30	Y30	Z30	X31	Y31	Z31	X32	Y32	Z32	X33	Y33	Z33	

18	27.274928571429	652.863097150905	1010.517725829916	397.056238598702	857.156879056302	1435.525417120299	225.525663592725	941.392574751740	1368.148681885871	397.702027175549	840.438716416316	1447.389620273990	559.803564237671	833.627914369872	1499.609089546962	378.161588889093	869.140708172546	955.798536927512	539.152719505372	882.597167038668	962.824100777463	263.413653134502	938.130634667853	770.420182526483	518.543342028859	883.595898161017	652.390729295777	589.697593285714	970.833807081325	609.394327399995	512.844627380422	998.333521760994	525.634679537306	531.596740745974	895.355775403208	736.682238494256	298.065923681992	790.370745690198	635.310321462139	228.581848009343	854.906677510560	546.726061218425	295.928697106244	842.580175399510	480.686024794095	305.098277881925	813.151992132038	411.980747768105	296.129290643048	716.470076260808	303.889192133951	245.350303608405	758.025147155338	189.753801206392	317.535090882053	976.460467684381	436.084152477628	541.958455577201	913.854807275230	326.610632773753	604.286822140569	977.900938837793	235.817660928847	555.353322010348	873.883231117651	52.681191955381	524.521130768762	1036.675527946759	123.202204304307	573.689393926720	952.182828019520	52.161366925820	604.820020310608	1156.501911013142	82.961243737051	611.160877274351	622.632352353928	38.747004318666	363.703061342290	692.644566860203	34.893691537678	279.686513496166	778.129285593783	94.789262185239	303.320595055673	904.932112888740	40.440956863562	268.830967210105	848.812514601375	1096.791167650820	85.917204285346	1051.390202466529	972.819174469545	184.094703362919	695.764125130096	1132.254909055876	664.125431133420	655.414438056789	875.092712183093	676.714395650774	
19	27.287571428571	653.680552552596	1009.442051494119	398.386317787818	856.193182795025	1434.892780863571	226.784454468249	940.780071202282	1367.738697523769	398.873760898403	839.662567626491	1446.766409515077	561.024733141185	832.836367411754	1498.920981371155	379.374243444811	869.998070228530	954.742690418848	540.702977254657	883.449305788515	962.206189804839	264.789133996785	936.158287870845	766.519608959056	520.803264321024	878.419685401636	649.246299910768	590.446480491444	965.194784231213	605.420138822584	513.480060849884	990.960421746535	522.757206721324	530.878663133802	895.166111105056	735.712074768668	299.048033257905	789.377532788557	634.932024139899	229.397878388464	853.302047000636	545.876993886343	296.527037784454	840.495173982196	479.792930676964	305.615437868001	810.597110153578	411.229113726215	296.566697671831	712.974777189510	303.926083805495	245.641975171574	753.790316316307	189.400496450875	317.662601060466	971.082586766213	433.304609328220	541.846251852160	910.366743502727	322.540443101780	603.776859436887	976.476978421137	233.020014502208	554.874445752064	876.048676306941	48.405813651675	523.226645645100	1037.819994676819	120.577353329308	572.988027533676	953.963036730573	48.839131197302	603.889534224256	1157.970382990870	81.714980781605	611.063336101737	617.561652126543	38.793846786684	363.668223708687	687.548038625232	34.901497657788	279.656828240374	773.077548526491	94.756169122723	303.309895542046	899.811953321979	40.381636296414	268.805030400503	851.564701224852	1096.791758955277	86.122003079877	1056.011453813801	975.328786673620	183.274432631176	698.618582423505	1129.972590272287	666.150752335812	662.262221213922	872.232892001566	679.087401800378	
20	27.300214285714	654.684000459421	1008.230260857318	399.933739371608	854.970234466514	1434.287505402680	228.257074812643	940.090679945454	1367.381876369204	400.207278328360	838.825915571620	1446.037617716419	562.500214951862	831.872790522377	1498.191938070472	380.870100073407	871.154492920114	953.616229775814	542.286566310944	884.428485001620	961.584561303739	266.244539439704	934.820588058496	762.859965905853	522.957610654239	874.070210312113	646.253479424157	591.037978538640	960.500812380542	601.768136136208	514.017521655861	984.238196400109	519.790338616683	530.113130122104	895.138954754540	734.679373409418	300.011672559891	788.482610270144	634.525336161051	230.284556730855	851.808645348035	544.987407466217	297.163740550997	838.509902995026	478.822135051801	306.185520067169	808.102088354556	410.425451191195	297.048281001199	709.479921687550	303.963005347764	245.970060695534	749.551740350183	189.019632419940	317.803038436769	965.803756144685	430.408476216344	541.650623971024	906.120769415952	318.915525339972	603.137855139225	973.483704453709	230.229751493170	554.252122626525	875.170590915494	45.307635176298	521.713275531545	1036.397369527221	117.662037156389	572.173526703129	952.604967965333	46.016845721244	602.818645787138	1156.479321924572	79.117286046727	610.891946578337	612.481510477962	38.799438103191	363.636338213133	682.444426218805	34.891804528950	279.629920365765	768.006107080438	94.727669372808	303.302330096715	894.681661459532	40.330971603302	268.775265148496	853.967639025488	1096.814372290985	86.538991675424	1060.230554484698	977.323794634238	182.144328822418	702.110105693061	1127.275101834957	668.464468504941	670.604817723048	868.902659069547	681.644551863163	
21	27.312857142857	655.852520155979	1006.899807116997	401.683774077728	853.530130125225	1433.720073675570	229.950412004840	939.343012471334	1367.080483677682	401.714701476163	837.936474159418	1445.209708302495	564.229888842068	830.769463458340	1497.434872125379	382.652432241074	872.580975557481	952.457315379005	543.900949906418	885.515022781225	960.959539965284	267.786338792864	934.174943614263	759.519309783445	524.967415499534	870.641856716603	643.472771039020	591.498962328204	956.849926797136	598.493939320895	514.498770459211	978.315445532055	516.805655198261	529.358499349394	895.269837417089	733.593658617406	300.966864657585	787.696967282274	634.083804711414	231.257186560696	850.457946391074	544.057388998885	297.857475720004	836.674937674101	477.757233826758	306.814590034876	805.690823132827	409.561586353694	297.587332580639	705.994792952653	304.006561736108	246.352160968190	745.306530422809	188.606438428844	317.961044619207	960.807491888334	427.458149900688	541.391760883713	901.402829908267	315.724943104692	602.465592857029	969.235215844610	227.439152887878	553.528954702893	871.631723970773	43.201007595715	520.122959373610	1032.770293812318	114.526011031193	571.286856788006	948.566089914302	43.613390140749	601.702569949299	1152.510483566530	75.393117825921	610.614464469881	607.387567810012	38.760274107387	363.606970697168	677.333854914869	34.861048004983	279.609109795641	762.914062100102	94.703852164768	303.300956808198	889.545100655592	40.285570463836	268.740210029423	855.983046017588	1096.852123597872	87.181444597822	1064.007315231979	978.805904305217	180.731462571822	706.196535243501	1124.224241346413	671.045667854604	680.380869934591	865.212271224686	684.357148592289	
